<svg xmlns="http://www.w3.org/2000/svg" viewBox="0 0 1000 900">
  <defs>
    <radialGradient id="pageGlow" cx="25%" cy="10%" r="90%">
      <stop offset="0%" stop-color="#f9fdff"/>
      <stop offset="75%" stop-color="#dceff9"/>
      <stop offset="100%" stop-color="#d4e7f2"/>
    </radialGradient>
    <radialGradient id="skin" cx="35%" cy="28%" r="70%">
      <stop offset="0%" stop-color="#ffd4c3"/>
      <stop offset="50%" stop-color="#f39b8c"/>
      <stop offset="100%" stop-color="#df7e71"/>
    </radialGradient>
    <linearGradient id="line" x1="0%" y1="0%" x2="100%" y2="0%">
      <stop offset="0%" stop-color="#cfd6dc" stop-opacity=".1"/>
      <stop offset="50%" stop-color="#9ab6c8" stop-opacity=".8"/>
      <stop offset="100%" stop-color="#dbe6ef" stop-opacity=".15"/>
    </linearGradient>
  </defs>
  <rect width="1000" height="900" fill="url(#pageGlow)"/>
  <g fill="none" stroke="url(#line)" stroke-width="5" opacity=".75">
    <circle cx="315" cy="235" r="170"/>
    <circle cx="510" cy="220" r="198"/>
    <circle cx="600" cy="402" r="208"/>
    <circle cx="390" cy="520" r="214"/>
    <path d="M162 170c93 87 99 231 19 330-76 95-92 192-51 286"/>
    <path d="M600 8c95 56 161 161 168 291 7 127 52 220 118 280"/>
    <path d="M253 54c-31 90-23 174 28 255 57 90 73 178 45 269"/>
  </g>
  <g transform="translate(90 185)">
    <path d="M302 506c44-75 70-138 89-227 11-50 38-96 83-132 44-35 93-55 132-54 36 0 60 15 73 40 15 29 11 61-11 88-23 27-62 46-90 71-39 33-51 73-54 122-4 79-25 151-65 215-31 49-77 82-127 87-50 5-99-20-126-60-32-48-36-104-10-150 23-40 66-70 106-100z" fill="url(#skin)"/>
    <ellipse cx="458" cy="258" rx="128" ry="150" fill="url(#skin)" transform="rotate(-22 458 258)"/>
    <path d="M560 231c35 17 52 57 38 94-17 46-73 76-123 66-38-8-69-37-76-74-10-47 18-95 67-111 34-10 66-4 94 25z" fill="url(#skin)" opacity=".76"/>
    <circle cx="432" cy="190" r="8" fill="#df7d74"/>
    <path d="M380 301c27 31 31 68 12 110" fill="none" stroke="#e68b80" stroke-width="10" stroke-linecap="round"/>
  </g>
</svg>
